
CASCADE Topology V1, (c) Matra-Datavision
Locations 54
1
1.000000000000000 0.000000000000000 0.000000000000000 0.000000000000000 
0.000000000000000 1.000000000000000 0.000000000000000 0.000000000000000 
0.000000000000000 0.000000000000000 1.000000000000000 0.000000000000000 
1
1.000000000000000 0.000000000000000 0.000000000000000 0.000000000000000 
0.000000000000000 -0.000000000000000 -1.000000000000000 0.000000000000000 
0.000000000000000 1.000000000000000 -0.000000000000000 0.000000000000000 
1
1.000000000000000 0.000000000000000 0.000000000000000 0.000000000000000 
0.000000000000000 -0.000000000000000 -1.000000000000000 0.000000000000000 
0.000000000000000 1.000000000000000 -0.000000000000000 0.000000000000000 
1
1.000000000000000 0.000000000000000 0.000000000000000 0.000000000000000 
0.000000000000000 -0.000000000000000 -1.000000000000000 0.000000000000000 
0.000000000000000 1.000000000000000 -0.000000000000000 0.000000000000000 
1
1.000000000000000 0.000000000000000 0.000000000000000 0.000000000000000 
0.000000000000000 -0.000000000000000 -1.000000000000000 0.000000000000000 
0.000000000000000 1.000000000000000 -0.000000000000000 0.000000000000000 
1
1.000000000000000 0.000000000000000 0.000000000000000 0.000000000000000 
0.000000000000000 -0.000000000000000 -1.000000000000000 0.000000000000000 
0.000000000000000 1.000000000000000 -0.000000000000000 0.000000000000000 
1
1.000000000000000 0.000000000000000 0.000000000000000 0.000000000000000 
0.000000000000000 -0.000000000000000 -1.000000000000000 0.000000000000000 
0.000000000000000 1.000000000000000 -0.000000000000000 0.000000000000000 
2  2 1 3 -1 4 1 5 -1 6 1 7 -1 0
1
1.000000000000000 0.000000000000000 0.000000000000000 0.000000000000000 
0.000000000000000 -0.000000000000000 -1.000000000000000 0.000000000000000 
0.000000000000000 1.000000000000000 -0.000000000000000 0.000000000000000 
2  9 -1 7 1 6 -1 5 1 4 -1 3 1 2 -1 0
1
1.000000000000000 0.000000000000000 0.000000000000000 0.000000000000000 
0.000000000000000 1.000000000000000 0.000000000000000 0.000000000000000 
0.000000000000000 0.000000000000000 1.000000000000000 0.000000000000000 
1
1.000000000000000 0.000000000000000 0.000000000000000 0.000000000000000 
0.000000000000000 0.000000000000000 -1.000000000000000 0.000000000000000 
0.000000000000000 1.000000000000000 0.000000000000000 0.000000000000000 
1
1.000000000000000 0.000000000000000 0.000000000000000 0.000000000000000 
0.000000000000000 -0.000000000000000 -1.000000000000000 0.000000000000000 
0.000000000000000 1.000000000000000 -0.000000000000000 0.000000000000000 
2  11 1 12 1 13 -1 0
2  9 -1 7 1 6 -1 5 1 4 -1 3 1 2 -1 13 1 12 -1 11 -1 0
1
1.000000000000000 0.000000000000000 0.000000000000000 0.000000000000000 
0.000000000000000 1.000000000000000 0.000000000000000 0.000000000000008 
0.000000000000000 0.000000000000000 1.000000000000000 18.000000000000000 
2  11 1 12 1 13 -1 16 1 0
2  9 -1 7 1 6 -1 5 1 4 -1 3 1 2 -1 16 -1 13 1 12 -1 11 -1 0
2  6 1 7 -1 0
2  2 1 3 -1 4 1 5 -1 0
2  11 1 12 1 13 -1 2 1 3 -1 4 1 5 -1 0
2  11 1 12 1 13 -1 16 1 2 1 3 -1 4 1 5 -1 0
2  9 -1 7 1 6 -1 0
1
1.000000000000000 0.000000000000000 0.000000000000000 0.000000000000000 
0.000000000000000 1.000000000000000 0.000000000000000 0.000000000000000 
0.000000000000000 0.000000000000000 1.000000000000000 0.000000000000000 
1
0.000000000000000 0.000000000000000 1.000000000000000 18.554586098670299 
0.000000000000000 -1.000000000000000 0.000000000000000 0.000000000000000 
1.000000000000000 0.000000000000000 -0.000000000000000 0.000000000000000 
2  24 1 25 1 5 -1 0
2  5 1 25 -1 24 -1 0
2  9 -1 7 1 6 -1 5 1 25 -1 24 -1 0
2  13 -1 2 1 3 -1 4 1 5 -1 6 1 7 -1 0
2  11 1 12 1 0
2  13 -1 16 1 2 1 3 -1 4 1 5 -1 6 1 7 -1 0
2  4 1 5 -1 6 1 7 -1 0
2  2 1 3 -1 0
2  11 1 12 1 13 -1 2 1 3 -1 0
2  11 1 12 1 13 -1 16 1 2 1 3 -1 0
1
1.000000000000000 0.000000000000000 0.000000000000000 0.000000000000000 
0.000000000000000 1.000000000000000 0.000000000000000 0.000000000000000 
0.000000000000000 0.000000000000000 1.000000000000000 0.000000000000000 
1
-1.000000000000000 0.000000000000000 0.000000000000000 0.000000000000000 
0.000000000000000 -1.000000000000000 0.000000000000000 0.000000000000008 
0.000000000000000 0.000000000000000 1.000000000000000 37.500000000000000 
2  36 1 37 1 3 -1 0
2  9 -1 7 1 6 -1 5 1 4 -1 3 1 37 -1 36 -1 0
2  11 1 12 1 13 -1 2 1 3 -1 4 1 5 -1 6 1 7 -1 0
2  11 1 12 1 13 -1 16 1 2 1 3 -1 4 1 5 -1 6 1 7 -1 0
1
1.000000000000000 0.000000000000000 0.000000000000000 0.000000000000000 
0.000000000000000 1.000000000000000 0.000000000000000 0.000000000000000 
0.000000000000000 0.000000000000000 1.000000000000000 0.000000000000000 
1
-1.000000000000000 0.000000000000000 0.000000000000000 0.000000000000000 
0.000000000000000 -1.000000000000000 0.000000000000000 0.000000000000000 
0.000000000000000 0.000000000000000 1.000000000000000 0.000000000000000 
2  42 1 43 1 7 -1 0
2  7 1 43 -1 42 -1 0
2  9 -1 7 1 43 -1 42 -1 0
2  9 -1 7 1 6 -1 5 1 4 -1 0
2  9 -1 0
1
1.000000000000000 0.000000000000000 0.000000000000000 0.000000000000000 
0.000000000000000 1.000000000000000 0.000000000000000 4.000000000000000 
0.000000000000000 0.000000000000000 1.000000000000000 -0.000000000000001 
2  42 1 43 1 7 -1 49 1 0
2  49 -1 7 1 43 -1 42 -1 0
2  9 -1 49 -1 7 1 43 -1 42 -1 0
2  7 -1 49 1 0
2  42 1 43 1 0
Curve2ds 16
1 0.00000000000000000 -37.00000000000000711 1.00000000000000000 0.00000000000000000 
1 0.00000000000000000 -37.00000000000000000 1.00000000000000000 0.00000000000000000 
1 0.00000000000000000 0.00000000000000000 1.00000000000000000 0.00000000000000000 
1 0.00000000000000000 0.00000000000000000 1.00000000000000000 0.00000000000000000 
1 0.00000000000000000 -34.50000000000000711 1.00000000000000000 0.00000000000000000 
1 0.00000000000000000 0.00000000000000000 0.00000000000000000 -1.00000000000000000 
1 6.28318530717958623 0.00000000000000000 0.00000000000000000 -1.00000000000000000 
1 0.00000000000000000 -34.50000000000000000 1.00000000000000000 0.00000000000000000 
1 0.00000000000000000 0.00000000000000000 0.00000000000000000 -1.00000000000000000 
1 6.28318530717958623 0.00000000000000000 0.00000000000000000 -1.00000000000000000 
1 0.00000000000000000 -2.50000000000000711 1.00000000000000000 0.00000000000000000 
1 0.00000000000000000 -2.50000000000000355 1.00000000000000000 0.00000000000000000 
1 0.00000000000000000 0.00000000000000000 1.00000000000000000 0.00000000000000000 
1 0.00000000000000000 0.00000000000000000 0.00000000000000000 -1.00000000000000000 
1 6.28318530717958623 0.00000000000000000 0.00000000000000000 -1.00000000000000000 
1 0.00000000000000000 -4.00000000000000000 1.00000000000000000 0.00000000000000000 
Curves 51
1 -18.44541390132970093 -0.00000000000000111 -2.50000000000000000 0.00000000000000000 -1.00000000000000000 0.00000000000000044 
1 18.55458609867029907 -0.00000000000000111 -2.50000000000000000 0.00000000000000000 -1.00000000000000000 0.00000000000000044 
1 -18.44541390132970093 0.00000000000000000 -2.50000000000000000 1.00000000000000000 0.00000000000000000 0.00000000000000000 
1 -18.44541390132970093 -18.00000000000000711 -20.49999999999999289 1.00000000000000000 0.00000000000000000 0.00000000000000000 
1 -18.44541390132970093 0.00000000000001665 37.50000000000000000 0.00000000000000000 -1.00000000000000000 0.00000000000000044 
1 -18.44541390132970093 0.00000000000000000 37.50000000000000000 0.00000000000000000 0.00000000000000000 -1.00000000000000000 
1 -18.44541390132970093 -18.00000000000000711 19.50000000000000711 0.00000000000000000 0.00000000000000000 -1.00000000000000000 
2 -18.44541390132970093 -8.99999999999999467 24.94278000000000972 1.00000000000000000 0.00000000000000000 -0.00000000000000022 0.00000000000000022 0.00000000000000022 1.00000000000000000 0.00000000000000000 -1.00000000000000000 0.00000000000000022 4.04999999999999982
2 -18.44541390132969738 -8.99999999999999822 9.04101200000001093 1.00000000000000000 0.00000000000000000 -0.00000000000000022 0.00000000000000022 0.00000000000000022 1.00000000000000000 0.00000000000000000 -1.00000000000000000 0.00000000000000022 4.04999999999999982
1 18.55458609867029907 0.00000000000000000 -2.50000000000000000 0.00000000000000000 0.00000000000000000 1.00000000000000000 
1 18.55458609867029907 -18.00000000000000711 -20.49999999999999289 0.00000000000000000 0.00000000000000000 1.00000000000000000 
1 18.55458609867029907 0.00000000000001665 37.50000000000000000 0.00000000000000000 -1.00000000000000000 0.00000000000000044 
2 -9.00000000000000000 24.94277999999999906 0.00000000000000000 0.00000000000000000 -0.00000000000000000 1.00000000000000000 0.00000000000000000 1.00000000000000000 0.00000000000000000 -1.00000000000000000 0.00000000000000000 0.00000000000000000 4.04999999999999982
2 -9.00000000000000000 9.04101200000000027 0.00000000000000000 0.00000000000000000 -0.00000000000000000 1.00000000000000000 0.00000000000000000 1.00000000000000000 0.00000000000000000 -1.00000000000000000 0.00000000000000000 0.00000000000000000 4.04999999999999982
1 18.55458609867029907 0.00000000000000000 37.50000000000000000 -1.00000000000000000 0.00000000000000000 0.00000000000000000 
1 -15.94541390132970093 0.00000000000000000 0.00000000000000000 1.00000000000000000 0.00000000000000000 0.00000000000000000 
1 16.05458609867029907 0.00000000000000000 0.00000000000000000 0.00000000000000000 0.00000000000000000 1.00000000000000000 
1 16.05458609867029907 0.00000000000000000 35.00000000000000000 -1.00000000000000000 0.00000000000000000 0.00000000000000000 
1 -15.94541390132970093 0.00000000000000000 35.00000000000000000 0.00000000000000000 0.00000000000000000 -1.00000000000000000 
1 18.55458609867029907 -18.00000000000000711 19.50000000000000711 -1.00000000000000000 0.00000000000000000 0.00000000000000000 
1 -15.94541390132970093 -18.00000000000000711 -17.99999999999999289 1.00000000000000000 0.00000000000000000 0.00000000000000000 
1 16.05458609867029907 -18.00000000000000711 -17.99999999999999289 0.00000000000000000 0.00000000000000000 1.00000000000000000 
1 16.05458609867029907 -18.00000000000000711 17.00000000000000711 -1.00000000000000000 0.00000000000000000 0.00000000000000000 
1 -15.94541390132970093 -18.00000000000000711 17.00000000000000711 0.00000000000000000 0.00000000000000000 -1.00000000000000000 
1 3.09097299999999997 37.50000000000000711 -43.53189199999999204 0.00000000000000000 0.00000000000000000 -1.00000000000000000 
1 -2.90902700000000003 37.50000000000000711 -43.53189199999999204 1.00000000000000000 0.00000000000000000 0.00000000000000000 
1 -2.90902700000000003 37.50000000000000711 -49.53189199999999204 0.00000000000000000 0.00000000000000000 1.00000000000000000 
1 3.09097299999999997 37.50000000000000711 -49.53189199999999204 -1.00000000000000000 0.00000000000000000 0.00000000000000000 
2 -15.94541390132970093 -8.99999999999999467 24.94278000000000972 1.00000000000000000 0.00000000000000000 -0.00000000000000022 0.00000000000000022 0.00000000000000022 1.00000000000000000 0.00000000000000000 -1.00000000000000000 0.00000000000000022 4.04999999999999982
1 18.55458609867030617 -8.99999999999999289 28.99278000000000333 -1.00000000000000000 0.00000000000000000 0.00000000000000022 
2 -15.94541390132969738 -8.99999999999999822 9.04101200000000915 1.00000000000000000 0.00000000000000000 -0.00000000000000022 0.00000000000000022 0.00000000000000022 1.00000000000000000 0.00000000000000000 -1.00000000000000000 0.00000000000000022 4.04999999999999982
1 18.55458609867030262 -8.99999999999999645 13.09101200000000098 -1.00000000000000000 0.00000000000000000 0.00000000000000022 
1 18.55458609867030617 -8.99999999999999289 28.99278000000000333 -1.00000000000000000 0.00000000000000000 0.00000000000000022 
2 16.05458609867029907 -8.99999999999999467 24.94278000000000262 1.00000000000000000 0.00000000000000000 -0.00000000000000022 0.00000000000000022 0.00000000000000022 1.00000000000000000 0.00000000000000000 -1.00000000000000000 0.00000000000000022 4.04999999999999982
1 18.55458609867030262 -8.99999999999999645 13.09101200000000098 -1.00000000000000000 0.00000000000000000 0.00000000000000022 
2 16.05458609867029907 -8.99999999999999822 9.04101200000000205 1.00000000000000000 0.00000000000000000 -0.00000000000000022 0.00000000000000022 0.00000000000000022 1.00000000000000000 0.00000000000000000 -1.00000000000000000 0.00000000000000022 4.04999999999999982
1 -15.94541390132970093 0.00000000000000000 0.00000000000000000 0.00000000000000000 -1.00000000000000000 0.00000000000000044 
1 16.05458609867029907 0.00000000000000000 0.00000000000000000 0.00000000000000000 -1.00000000000000000 0.00000000000000044 
2 0.00000000000000000 0.00000000000000000 -9.03655900000000045 -0.00000000000000000 1.00000000000000000 0.00000000000000000 1.00000000000000000 0.00000000000000000 0.00000000000000000 0.00000000000000000 0.00000000000000000 -1.00000000000000000 1.00000000000000000
1 16.05458609867029907 0.00000000000001554 35.00000000000000000 0.00000000000000000 -1.00000000000000000 0.00000000000000044 
1 -15.94541390132970093 0.00000000000001554 35.00000000000000000 0.00000000000000000 -1.00000000000000000 0.00000000000000044 
1 6.48180654933514955 -12.03189199999998316 35.00000000000000711 -1.00000000000000000 -0.00000000000000000 0.00000000000000000 
1 -3.09097299999999908 -3.01594599999998358 35.00000000000000000 -0.00000000000000000 1.00000000000000000 -0.00000000000000044 
1 9.48180654933515044 -6.03189199999998316 35.00000000000000000 1.00000000000000000 0.00000000000000000 0.00000000000000000 
1 2.90902700000000003 -6.01594599999998447 35.00000000000000000 0.00000000000000000 -1.00000000000000000 0.00000000000000044 
1 -3.09097299999999997 -12.03189199999998316 37.50000000000000000 0.00000000000000000 -0.00000000000000022 -1.00000000000000000 
1 -3.09097299999999997 -6.03189199999998227 37.50000000000000000 0.00000000000000000 -0.00000000000000022 -1.00000000000000000 
1 2.90902700000000003 -6.03189199999998227 37.50000000000000000 0.00000000000000000 -0.00000000000000022 -1.00000000000000000 
1 2.90902700000000003 -12.03189199999998316 37.50000000000000000 0.00000000000000000 -0.00000000000000022 -1.00000000000000000 
1 -1.00000000000000000 -9.03655900000000045 0.00000000000000201 0.00000000000000000 0.00000000000000022 1.00000000000000000 
2 0.00000000000000000 4.00000000000000089 -13.03655900000000045 -0.00000000000000000 1.00000000000000000 0.00000000000000000 1.00000000000000000 0.00000000000000000 0.00000000000000000 0.00000000000000000 0.00000000000000000 -1.00000000000000000 1.00000000000000000
Polygon3D 0
PolygonOnTriangulations 0
Surfaces 20
1 -18.44541390132970093 -0.00000000000000111 -2.50000000000000000 0.00000000000000000 0.00000000000000044 1.00000000000000000 1.00000000000000000 0.00000000000000000 -0.00000000000000000 -0.00000000000000000 1.00000000000000000 -0.00000000000000044 
1 -18.44541390132970093 0.00000000000001665 37.50000000000000000 1.00000000000000000 0.00000000000000000 0.00000000000000000 0.00000000000000000 -0.00000000000000044 -1.00000000000000000 0.00000000000000000 1.00000000000000000 -0.00000000000000044 
2 18.55458609867030617 -8.99999999999999467 24.94278000000000262 1.00000000000000000 0.00000000000000000 -0.00000000000000022 0.00000000000000022 0.00000000000000022 1.00000000000000000 0.00000000000000000 -1.00000000000000000 0.00000000000000022 4.04999999999999982
2 18.55458609867030262 -8.99999999999999822 9.04101200000000205 1.00000000000000000 0.00000000000000000 -0.00000000000000022 0.00000000000000022 0.00000000000000022 1.00000000000000000 0.00000000000000000 -1.00000000000000000 0.00000000000000022 4.04999999999999982
1 18.55458609867029907 -0.00000000000000111 -2.50000000000000000 -1.00000000000000000 0.00000000000000000 0.00000000000000000 0.00000000000000000 0.00000000000000044 1.00000000000000000 0.00000000000000000 1.00000000000000000 -0.00000000000000044 
2 18.55458609867030617 -8.99999999999999467 24.94278000000000262 1.00000000000000000 0.00000000000000000 -0.00000000000000022 0.00000000000000022 0.00000000000000022 1.00000000000000000 0.00000000000000000 -1.00000000000000000 0.00000000000000022 4.04999999999999982
2 18.55458609867030262 -8.99999999999999822 9.04101200000000205 1.00000000000000000 0.00000000000000000 -0.00000000000000022 0.00000000000000022 0.00000000000000022 1.00000000000000000 0.00000000000000000 -1.00000000000000000 0.00000000000000022 4.04999999999999982
1 0.05458609867029867 -17.50000000000000000 0.00000000000000389 0.00000000000000000 0.00000000000000000 1.00000000000000000 0.00000000000000000 -1.00000000000000000 0.00000000000000000 1.00000000000000000 0.00000000000000000 -0.00000000000000000 
1 0.05458609867029867 0.49999999999999289 -18.00000000000000355 0.00000000000000000 0.00000000000000000 1.00000000000000000 0.00000000000000000 -1.00000000000000000 0.00000000000000000 1.00000000000000000 0.00000000000000000 -0.00000000000000000 
1 18.55458609867029907 0.00000000000001665 37.50000000000000000 0.00000000000000000 -0.00000000000000044 -1.00000000000000000 -1.00000000000000000 -0.00000000000000000 0.00000000000000000 -0.00000000000000000 1.00000000000000000 -0.00000000000000044 
1 -15.94541390132970093 0.00000000000000000 0.00000000000000000 0.00000000000000000 0.00000000000000044 1.00000000000000000 1.00000000000000000 0.00000000000000000 -0.00000000000000000 -0.00000000000000000 1.00000000000000000 -0.00000000000000044 
2 0.00000000000000000 -9.03655900000000045 0.00000000000000201 0.00000000000000000 -0.00000000000000022 -1.00000000000000000 -1.00000000000000000 -0.00000000000000000 0.00000000000000000 0.00000000000000000 -1.00000000000000000 0.00000000000000022 1.00000000000000000
1 16.05458609867029907 0.00000000000000000 0.00000000000000000 -1.00000000000000000 0.00000000000000000 0.00000000000000000 0.00000000000000000 0.00000000000000044 1.00000000000000000 0.00000000000000000 1.00000000000000000 -0.00000000000000044 
1 16.05458609867029907 0.00000000000001554 35.00000000000000000 0.00000000000000000 -0.00000000000000044 -1.00000000000000000 -1.00000000000000000 -0.00000000000000000 0.00000000000000000 -0.00000000000000000 1.00000000000000000 -0.00000000000000044 
1 -15.94541390132970093 0.00000000000001554 35.00000000000000000 1.00000000000000000 0.00000000000000000 0.00000000000000000 0.00000000000000000 -0.00000000000000044 -1.00000000000000000 0.00000000000000000 1.00000000000000000 -0.00000000000000044 
1 -3.09097299999999997 -6.03189199999998227 37.50000000000000000 -1.00000000000000000 0.00000000000000000 0.00000000000000000 0.00000000000000000 -1.00000000000000000 0.00000000000000022 0.00000000000000000 0.00000000000000022 1.00000000000000000 
1 2.90902700000000003 -6.03189199999998227 37.50000000000000000 -0.00000000000000000 1.00000000000000000 -0.00000000000000022 -1.00000000000000000 0.00000000000000000 0.00000000000000000 0.00000000000000000 0.00000000000000022 1.00000000000000000 
1 2.90902700000000003 -12.03189199999998316 37.50000000000000000 1.00000000000000000 0.00000000000000000 0.00000000000000000 0.00000000000000000 1.00000000000000000 -0.00000000000000022 -0.00000000000000000 0.00000000000000022 1.00000000000000000 
1 -3.09097299999999997 -12.03189199999998316 37.50000000000000000 0.00000000000000000 -1.00000000000000000 0.00000000000000022 1.00000000000000000 0.00000000000000000 0.00000000000000000 -0.00000000000000000 0.00000000000000022 1.00000000000000000 
1 0.00000000000000002 -4.00000000000000089 -13.03655900000000045 0.00000000000000000 -1.00000000000000000 0.00000000000000000 1.00000000000000000 0.00000000000000000 0.00000000000000000 -0.00000000000000000 0.00000000000000000 1.00000000000000000 
Triangulations 0

TShapes 140
Ve
0.000000100000000
-18.445413901329701 2.500000000000000 0.000000000000000
0 0

0101101
*
Ve
0.000000100000000
-18.445413901329701 2.499999999999992 -18.000000000000000
0 0

0101101
*
Ed
 0.000000100000000 1 1 0
1  1 0 0.000000000000000 18.000000000000000
0

0101000
+140 10 -139 10 *
Ve
0.000000100000000
18.554586098670299 2.500000000000000 0.000000000000000
0 0

0101101
*
Ve
0.000000100000000
18.554586098670299 2.499999999999992 -18.000000000000000
0 0

0101101
*
Ed
 0.000000100000000 1 1 0
1  2 0 0.000000000000000 18.000000000000000
0

0101000
+137 10 -136 10 *
Ed
 0.000000100000000 1 1 0
1  3 0 0.000000000000000 37.000000000000000
0

0101000
+140 15 -137 15 *
Ed
 0.000000100000000 1 1 0
1  4 0 0.000000000000000 37.000000000000000
0

0101000
+139 18 -136 18 *
Wi

0101100
+138 0 -135 0 -134 14 +133 17 *
Fa
0  0.000000100000000 1 0

0111000
+132 0 *
Ve
0.000000100000000
-18.445413901329701 -37.500000000000000 0.000000000000000
0 0

0101101
*
Ve
0.000000100000000
-18.445413901329701 -37.500000000000007 -18.000000000000000
0 0

0101101
*
Ed
 0.000000100000000 1 1 0
1  5 0 0.000000000000000 18.000000000000000
0

0101000
+130 10 -129 10 *
Ed
 0.000000100000000 1 1 0
1  6 0 0.000000000000000 40.000000000000000
0

0101000
+130 15 -140 15 *
Ed
 0.000000100000000 1 1 0
1  7 0 0.000000000000000 40.000000000000000
0

0101000
+129 18 -139 18 *
Wi

0101100
+128 20 -127 21 +126 22 -138 20 *
Ve
0.000000100000000
-18.445413901329701 -28.992780000000010 -8.999999999999993
0 0

0101101
*
Ed
 0.000000100000000 1 1 0
1  8 0 0.000000000000000 6.283185307179586
2  1 3 0 0.000000000000000 6.283185307179586
0

0101000
+124 23 -124 23 *
Wi

0101100
-123 0 *
Ve
0.000000100000000
-18.445413901329697 -13.091012000000010 -8.999999999999996
0 0

0101101
*
Ed
 0.000000100000000 1 1 0
1  9 0 0.000000000000000 6.283185307179586
2  2 4 0 0.000000000000000 6.283185307179586
0

0101000
+121 23 -121 23 *
Wi

0101100
-120 0 *
Fa
0  0.000000100000000 2 20

0111000
+125 0 +122 0 +119 0 *
Ve
0.000000100000000
18.554586098670299 -37.500000000000000 0.000000000000000
0 0

0101101
*
Ed
 0.000000100000000 1 1 0
1  10 0 0.000000000000000 40.000000000000000
0

0101000
+137 15 -117 15 *
Ve
0.000000100000000
18.554586098670299 -37.500000000000007 -18.000000000000000
0 0

0101101
*
Ed
 0.000000100000000 1 1 0
1  11 0 0.000000000000000 40.000000000000000
0

0101000
+136 18 -115 18 *
Ed
 0.000000100000000 1 1 0
1  12 0 0.000000000000000 18.000000000000000
0

0101000
+117 10 -115 10 *
Wi

0101100
+135 20 -116 21 +114 22 -113 20 *
Ve
0.000000100000007
18.554586098670306 -28.992780000000003 -8.999999999999993
0 0

0101101
*
Ed
 0.000000100000007 1 1 0
1  13 0 0.000000000000000 6.283185307179586
2  3 6 27 0.000000000000000 6.283185307179586
0

0101000
+111 28 -111 28 *
Wi

0101100
+110 26 *
Ve
0.000000100000004
18.554586098670303 -13.091012000000001 -8.999999999999996
0 0

0101101
*
Ed
 0.000000100000004 1 1 0
1  14 0 0.000000000000000 6.283185307179586
2  4 7 27 0.000000000000000 6.283185307179586
0

0101000
+108 28 -108 28 *
Wi

0101100
+107 26 *
Fa
0  0.000000100000000 5 20

0111000
+112 0 +109 0 +106 0 *
Ed
 0.000000100000000 1 1 0
1  15 0 0.000000000000000 37.000000000000000
0

0101000
+117 15 -130 15 *
Wi

0101100
+134 0 +116 0 +104 0 +127 0 *
Ve
0.000000100000000
-15.945413901329701 0.000000000000000 0.000000000000000
0 0

0101101
*
Ve
0.000000100000000
16.054586098670299 0.000000000000000 0.000000000000000
0 0

0101101
*
Ed
 0.000000100000000 1 1 0
1  16 0 0.000000000000000 32.000000000000000
0

0101000
+102 15 -101 15 *
Ve
0.000000100000000
16.054586098670299 -35.000000000000000 0.000000000000000
0 0

0101101
*
Ed
 0.000000100000000 1 1 0
1  17 0 0.000000000000000 35.000000000000000
0

0101000
+101 15 -99 15 *
Ve
0.000000100000000
-15.945413901329701 -35.000000000000000 0.000000000000000
0 0

0101101
*
Ed
 0.000000100000000 1 1 0
1  18 0 0.000000000000000 32.000000000000000
0

0101000
+99 15 -97 15 *
Ed
 0.000000100000000 1 1 0
1  19 0 0.000000000000000 35.000000000000000
0

0101000
+97 15 -102 15 *
Wi

0101100
+100 0 +98 0 +96 0 +95 0 *
Fa
0  0.000000100000000 8 0

0111000
-103 30 +94 30 *
Ed
 0.000000100000000 1 1 0
1  20 0 0.000000000000000 37.000000000000000
0

0101000
+115 18 -129 18 *
Wi

0101100
+133 0 +114 0 +92 0 +126 0 *
Ve
0.000000100000000
-15.945413901329701 -0.000000000000008 -18.000000000000000
0 0

0101101
*
Ve
0.000000100000000
16.054586098670299 -0.000000000000008 -18.000000000000000
0 0

0101101
*
Ed
 0.000000100000000 1 1 0
1  21 0 0.000000000000000 32.000000000000000
0

0101000
+90 18 -89 18 *
Ve
0.000000100000000
16.054586098670299 -35.000000000000007 -18.000000000000000
0 0

0101101
*
Ed
 0.000000100000000 1 1 0
1  22 0 0.000000000000000 35.000000000000000
0

0101000
+89 18 -87 18 *
Ve
0.000000100000000
-15.945413901329701 -35.000000000000007 -18.000000000000000
0 0

0101101
*
Ed
 0.000000100000000 1 1 0
1  23 0 0.000000000000000 32.000000000000000
0

0101000
+87 18 -85 18 *
Ed
 0.000000100000000 1 1 0
1  24 0 0.000000000000000 35.000000000000000
0

0101000
+85 18 -90 18 *
Wi

0101100
+88 0 +86 0 +84 0 +83 0 *
Fa
0  0.000000100000000 9 0

0111000
-91 30 +82 30 *
Wi

0101100
+113 33 -104 34 +92 35 -128 33 *
Ve
0.000000100000007
-3.090973000000000 -37.500000000000000 -6.031891999999982
0 0

0101101
*
Ve
0.000000100000007
-3.090973000000000 -37.500000000000000 -12.031891999999983
0 0

0101101
*
Ed
 0.000000100000007 1 1 0
1  25 0 0.000000000000000 6.000000000000000
0

0101000
+79 39 -78 39 *
Ve
0.000000100000007
2.909027000000000 -37.500000000000000 -6.031891999999982
0 0

0101101
*
Ed
 0.000000100000000 1 1 0
1  26 0 0.000000000000000 6.000000000000000
0

0101000
+76 39 -79 39 *
Ve
0.000000100000007
2.909027000000000 -37.500000000000000 -12.031891999999983
0 0

0101101
*
Ed
 0.000000100000007 1 1 0
1  27 0 0.000000000000000 6.000000000000000
0

0101000
+74 39 -76 39 *
Ed
 0.000000100000007 1 1 0
1  28 0 0.000000000000000 6.000000000000000
0

0101000
+78 39 -74 39 *
Wi

0101100
+77 38 +75 38 +73 38 +72 38 *
Fa
0  0.000000100000000 10 33

0111000
+80 0 +71 0 *
Ve
0.000000100000002
-15.945413901329701 -28.992780000000010 -8.999999999999993
0 0

0101101
*
Ed
 0.000000100000000 1 1 0
1  29 0 0.000000000000000 6.283185307179586
2  5 3 0 0.000000000000000 6.283185307179586
0

0101000
+69 23 -69 23 *
Ed
 0.000000100000000 1 1 0
1  30 0 34.500000000000007 37.000000000000007
3  6 7CN 3 0 34.500000000000007 37.000000000000007
0

0101000
+69 23 -124 23 *
Wi

0101100
-68 0 -67 0 +123 0 +67 0 *
Fa
0  0.000000100000000 3 0

0111000
+66 0 *
Ve
0.000000100000003
-15.945413901329697 -13.091012000000008 -8.999999999999996
0 0

0101101
*
Ed
 0.000000100000000 1 1 0
1  31 0 0.000000000000000 6.283185307179586
2  8 4 0 0.000000000000000 6.283185307179586
0

0101000
+64 23 -64 23 *
Ed
 0.000000100000000 1 1 0
1  32 0 34.500000000000000 37.000000000000000
3  9 10CN 4 0 34.500000000000000 37.000000000000000
0

0101000
+64 23 -121 23 *
Wi

0101100
-63 0 -62 0 +120 0 +62 0 *
Fa
0  0.000000100000000 4 0

0111000
+61 0 *
Ve
0.000000100000000
16.054586098670299 -28.992780000000003 -8.999999999999993
0 0

0101101
*
Ed
 0.000000100000000 1 1 0
1  33 0 0.000000000000000 2.500000000000007
3  6 7CN 6 0 0.000000000000000 2.500000000000007
0

0101000
+111 23 -59 23 *
Ed
 0.000000100000000 1 1 0
1  34 0 0.000000000000000 6.283185307179586
2  11 6 0 0.000000000000000 6.283185307179586
0

0101000
+59 23 -59 23 *
Wi

0101100
-110 26 -58 0 +57 0 +58 0 *
Fa
0  0.000000100000000 6 0

0111000
+56 0 *
Ve
0.000000100000002
16.054586098670299 -13.091012000000001 -8.999999999999996
0 0

0101101
*
Ed
 0.000000100000000 1 1 0
1  35 0 0.000000000000000 2.500000000000004
3  9 10CN 7 0 0.000000000000000 2.500000000000004
0

0101000
+108 23 -54 23 *
Ed
 0.000000100000000 1 1 0
1  36 0 0.000000000000000 6.283185307179586
2  12 7 0 0.000000000000000 6.283185307179586
0

0101000
+54 23 -54 23 *
Wi

0101100
-107 26 -53 0 +52 0 +53 0 *
Fa
0  0.000000100000000 7 0

0111000
+51 0 *
Ed
 0.000000100000000 1 1 0
1  37 0 0.000000000000000 18.000000000000000
0

0101000
+102 10 -90 10 *
Ed
 0.000000100000000 1 1 0
1  38 0 0.000000000000000 18.000000000000000
0

0101000
+101 10 -89 10 *
Wi

0101100
+49 8 -100 40 +88 41 -48 8 *
Ve
0.000000100000002
-1.000000000000000 -0.000000000000002 -9.036559000000000
0 0

0101101
*
Ed
 0.000000100000002 1 1 0
1  39 0 0.000000000000000 6.283185307179586
2  13 12 45 0.000000000000000 6.283185307179586
0

0101000
+46 46 -46 46 *
Wi

0101100
-45 44 *
Fa
0  0.000000100000000 11 8

0111000
+47 0 +44 0 *
Ed
 0.000000100000000 1 1 0
1  40 0 0.000000000000000 18.000000000000000
0

0101000
+99 10 -87 10 *
Wi

0101100
+48 20 -98 21 +86 22 -42 20 *
Wi

0101100
+57 0 *
Wi

0101100
+52 0 *
Fa
0  0.000000100000000 13 20

0111000
+41 0 +40 0 +39 0 *
Ed
 0.000000100000000 1 1 0
1  41 0 0.000000000000000 18.000000000000000
0

0101000
+97 10 -85 10 *
Wi

0101100
+42 33 -96 34 +84 35 -37 33 *
Ve
0.000028792333644
2.909027000000000 -35.000000000000007 -12.031891999999983
0 0

0101101
*
Ve
0.000028792333637
-3.090973000000000 -35.000000000000007 -12.031891999999983
0 0

0101101
*
Ed
 0.000028792333636 1 1 0
1  42 0 3.572779549335149 9.572779549335149
0

0101000
+35 47 -34 47 *
Ve
0.000028792333637
-3.090973000000000 -35.000000000000000 -6.031891999999983
0 0

0101101
*
Ed
 0.000028792333636 1 1 0
1  43 0 -9.015946000000000 -3.015945999999999
0

0101000
+34 47 -32 47 *
Ve
0.000028792333636
2.909027000000000 -35.000000000000000 -6.031891999999983
0 0

0101101
*
Ed
 0.000028792333636 1 1 0
1  44 0 -12.572779549335150 -6.572779549335150
0

0101000
+32 47 -30 47 *
Ed
 0.000028792333636 1 1 0
1  45 0 0.015945999999999 6.015946000000000
0

0101000
+30 47 -35 47 *
Wi

0101100
-33 0 -31 0 -29 0 -28 0 *
Fa
0  0.000000100000000 14 33

0111000
+36 0 +27 0 *
Wi

0101100
+37 20 -95 21 +83 22 -49 20 *
Wi

0101100
-68 0 *
Wi

0101100
-63 0 *
Fa
0  0.000000100000000 15 20

0111000
+25 0 +24 0 +23 0 *
Ed
 0.000000100000000 1 1 0
1  46 0 0.000000000000000 2.499999999999993
0

0101000
+78 47 -34 47 *
Ed
 0.000000100000000 1 1 0
1  47 0 0.000000000000000 2.500000000000000
0

0101000
+79 47 -32 47 *
Wi

0101100
-77 38 -21 0 -31 0 +20 0 *
Fa
0  0.000000100000000 16 0

0111000
+19 0 *
Ed
 0.000000100000000 1 1 0
1  48 0 0.000000000000000 2.500000000000000
0

0101000
+76 47 -30 47 *
Wi

0101100
-75 38 -20 0 -29 0 +17 0 *
Fa
0  0.000000100000000 17 0

0111000
+16 0 *
Ed
 0.000000100000000 1 1 0
1  49 0 0.000000000000000 2.499999999999993
0

0101000
+74 47 -35 47 *
Wi

0101100
-73 38 -17 0 -28 0 +14 0 *
Fa
0  0.000000100000000 18 0

0111000
+13 0 *
Wi

0101100
-72 38 -14 0 -33 0 +21 0 *
Fa
0  0.000000100000000 19 0

0111000
+11 0 *
Ve
0.000000100000000
-1.000000000000000 -4.000000000000000 -9.036558999999999
0 0

0101101
*
Ed
 0.000000100000000 1 1 0
1  50 0 0.000000000000000 4.000000000000000
3  14 15CN 12 0 0.000000000000000 4.000000000000000
0

0101000
+46 48 -9 48 *
Ed
 0.000000100000000 1 1 0
1  51 0 0.000000000000000 6.283185307179586
2  16 12 51 0.000000000000000 6.283185307179586
0

0101000
+9 52 -9 52 *
Wi

0101100
+8 0 -8 0 -45 44 +7 50 *
Fa
0  0.000000100000000 12 0

0111000
+6 0 *
Wi

0101100
+7 0 *
Fa
0  0.000000100000000 20 0

0111000
+4 54 *
Sh

0101100
-131 8 -118 19 -105 19 +93 29 -81 31 -70 32 -65 19 -60 19 -55 19 -50 19 
+43 0 +38 19 +26 32 +22 19 -18 32 -15 32 -12 32 -10 32 -5 0 +3 53 
*
So

1100000
+2 0 *

+1 1 