
CASCADE Topology V1, (c) Matra-Datavision
Locations 19
1
1.000000000000000 0.000000000000000 0.000000000000000 0.000000000000000 
0.000000000000000 -0.000000000000000 -1.000000000000000 0.000000000000000 
0.000000000000000 1.000000000000000 -0.000000000000000 0.000000000000000 
1
1.000000000000000 0.000000000000000 0.000000000000000 0.000000000000000 
0.000000000000000 -0.000000000000000 -1.000000000000000 0.000000000000000 
0.000000000000000 1.000000000000000 -0.000000000000000 0.000000000000000 
1
1.000000000000000 0.000000000000000 0.000000000000000 0.000000000000000 
0.000000000000000 -0.000000000000000 -1.000000000000000 0.000000000000000 
0.000000000000000 1.000000000000000 -0.000000000000000 0.000000000000000 
2  2 1 3 -1 0
1
1.000000000000000 0.000000000000000 0.000000000000000 0.000000000000000 
0.000000000000000 1.000000000000000 0.000000000000000 0.000000000000000 
0.000000000000000 0.000000000000000 1.000000000000000 0.000000000000000 
1
1.000000000000000 0.000000000000000 0.000000000000000 0.000000000000000 
0.000000000000000 0.000000000000000 -1.000000000000000 0.000000000000000 
0.000000000000000 1.000000000000000 0.000000000000000 0.000000000000000 
1
1.000000000000000 0.000000000000000 0.000000000000000 0.000000000000000 
0.000000000000000 -0.000000000000000 -1.000000000000000 0.000000000000000 
0.000000000000000 1.000000000000000 -0.000000000000000 0.000000000000000 
2  5 1 6 1 7 -1 0
1
1.000000000000000 0.000000000000000 0.000000000000000 0.000000000000000 
0.000000000000000 1.000000000000000 0.000000000000000 0.000000000000008 
0.000000000000000 0.000000000000000 1.000000000000000 18.000000000000000 
2  5 1 6 1 7 -1 9 1 0
2  7 -1 2 1 3 -1 0
2  5 1 6 1 0
2  7 -1 9 1 2 1 3 -1 0
2  5 1 6 1 7 -1 2 1 3 -1 0
2  5 1 6 1 7 -1 9 1 2 1 3 -1 0
1
1.000000000000000 0.000000000000000 0.000000000000000 0.000000000000000 
0.000000000000000 1.000000000000000 0.000000000000000 0.000000000000000 
0.000000000000000 0.000000000000000 1.000000000000000 0.000000000000000 
1
-1.000000000000000 0.000000000000000 0.000000000000000 0.000000000000000 
0.000000000000000 -1.000000000000000 0.000000000000000 0.000000000000008 
0.000000000000000 0.000000000000000 1.000000000000000 37.500000000000000 
2  16 1 17 1 3 -1 0
2  3 1 17 -1 16 -1 0
Curve2ds 8
8 3.57277954933514863 9.57277954933514863
1 9.57277954933514863 -12.03189199999999914 1.00000000000000000 0.00000000000000000 
8 3.57277954933514863 9.57277954933514863
1 9.57277954933514863 -2.49999999999999289 -1.00000000000000000 -0.00000000000000000 
8 -9.01594599999999957 -3.01594599999999913
1 19.14555909867029726 -3.01594599999999913 0.00000000000000000 1.00000000000000000 
8 -9.01594599999999957 -3.01594599999999913
1 -3.01594599999999913 -2.49999999999999911 -1.00000000000000000 -0.00000000000000022 
8 -12.57277954933515041 -6.57277954933515041
1 6.57277954933514863 -6.03189199999999914 -1.00000000000000000 0.00000000000000000 
8 -12.57277954933515041 -6.57277954933515041
1 -6.57277954933515041 -2.50000000000000000 -1.00000000000000000 0.00000000000000000 
8 0.01594599999999868 6.01594599999999957
1 13.14555909867029904 -6.01594599999999957 0.00000000000000000 -1.00000000000000000 
8 0.01594599999999868 6.01594599999999957
1 6.01594599999999957 -2.49999999999999867 -1.00000000000000000 0.00000000000000022 
Curves 28
1 -18.44541390132970093 -2.50000000000000000 0.00000000000000111 0.00000000000000000 0.00000000000000044 1.00000000000000000 
1 18.55458609867029907 -2.50000000000000000 0.00000000000000111 0.00000000000000000 0.00000000000000044 1.00000000000000000 
1 -18.44541390132970093 -2.50000000000000000 0.00000000000000000 1.00000000000000000 0.00000000000000000 0.00000000000000000 
1 -18.44541390132970093 37.50000000000000000 -0.00000000000001665 0.00000000000000000 0.00000000000000044 1.00000000000000000 
1 -18.44541390132970093 37.50000000000000000 0.00000000000000000 0.00000000000000000 -1.00000000000000000 0.00000000000000000 
1 18.55458609867029907 37.50000000000000000 -0.00000000000001665 0.00000000000000000 0.00000000000000044 1.00000000000000000 
1 18.55458609867029907 -2.50000000000000000 0.00000000000000000 0.00000000000000000 1.00000000000000000 0.00000000000000000 
1 18.55458609867029907 37.50000000000000000 0.00000000000000000 -1.00000000000000000 0.00000000000000000 0.00000000000000000 
1 -15.94541390132970093 0.00000000000000000 0.00000000000000000 1.00000000000000000 0.00000000000000000 0.00000000000000000 
1 16.05458609867029907 0.00000000000000000 0.00000000000000000 0.00000000000000000 1.00000000000000000 0.00000000000000000 
1 16.05458609867029907 35.00000000000000000 0.00000000000000000 -1.00000000000000000 0.00000000000000000 0.00000000000000000 
1 -15.94541390132970093 35.00000000000000000 0.00000000000000000 0.00000000000000000 -1.00000000000000000 0.00000000000000000 
1 3.09097299999999997 6.03189199999999914 0.00000000000000000 0.00000000000000000 1.00000000000000000 0.00000000000000000 
1 -2.90902700000000003 6.03189199999999914 0.00000000000000000 1.00000000000000000 0.00000000000000000 0.00000000000000000 
1 -2.90902700000000003 12.03189199999999914 0.00000000000000000 0.00000000000000000 -1.00000000000000000 0.00000000000000000 
1 3.09097299999999997 12.03189199999999914 0.00000000000000000 -1.00000000000000000 0.00000000000000000 0.00000000000000000 
1 -15.94541390132970093 0.00000000000000000 0.00000000000000000 0.00000000000000000 0.00000000000000044 1.00000000000000000 
1 16.05458609867029907 0.00000000000000000 0.00000000000000000 0.00000000000000000 0.00000000000000044 1.00000000000000000 
1 16.05458609867029907 35.00000000000000000 -0.00000000000001554 0.00000000000000000 0.00000000000000044 1.00000000000000000 
1 -15.94541390132970093 35.00000000000000000 -0.00000000000001554 0.00000000000000000 0.00000000000000044 1.00000000000000000 
1 6.48180654933514955 35.00000000000000711 12.03189199999998316 -1.00000000000000000 -0.00000000000000000 0.00000000000000000 
1 -3.09097299999999908 35.00000000000000000 3.01594599999998358 -0.00000000000000000 -0.00000000000000044 -1.00000000000000000 
1 9.48180654933515044 35.00000000000000000 6.03189199999998316 1.00000000000000000 0.00000000000000000 -0.00000000000000000 
1 2.90902700000000003 35.00000000000000000 6.01594599999998447 -0.00000000000000000 0.00000000000000044 1.00000000000000000 
1 -3.09097299999999997 37.50000000000000000 12.03189199999998316 -0.00000000000000000 -1.00000000000000000 0.00000000000000022 
1 -3.09097299999999997 37.50000000000000000 6.03189199999998227 -0.00000000000000000 -1.00000000000000000 0.00000000000000022 
1 2.90902700000000003 37.50000000000000000 6.03189199999998227 -0.00000000000000000 -1.00000000000000000 0.00000000000000022 
1 2.90902700000000003 37.50000000000000000 12.03189199999998316 -0.00000000000000000 -1.00000000000000000 0.00000000000000022 
Polygon3D 0
PolygonOnTriangulations 0
Surfaces 13
1 -18.44541390132970093 -2.50000000000000000 0.00000000000000111 0.00000000000000000 1.00000000000000000 -0.00000000000000044 1.00000000000000000 0.00000000000000000 0.00000000000000000 0.00000000000000000 -0.00000000000000044 -1.00000000000000000 
1 -18.44541390132970093 37.50000000000000000 -0.00000000000001665 1.00000000000000000 0.00000000000000000 -0.00000000000000000 0.00000000000000000 -1.00000000000000000 0.00000000000000044 0.00000000000000000 -0.00000000000000044 -1.00000000000000000 
1 18.55458609867029907 -2.50000000000000000 0.00000000000000111 -1.00000000000000000 0.00000000000000000 0.00000000000000000 0.00000000000000000 1.00000000000000000 -0.00000000000000044 -0.00000000000000000 -0.00000000000000044 -1.00000000000000000 
1 0.05458609867029867 0.00000000000000389 17.50000000000000000 0.00000000000000000 1.00000000000000000 0.00000000000000000 0.00000000000000000 -0.00000000000000000 1.00000000000000000 1.00000000000000000 0.00000000000000000 -0.00000000000000000 
1 18.55458609867029907 37.50000000000000000 -0.00000000000001665 0.00000000000000000 -1.00000000000000000 0.00000000000000044 -1.00000000000000000 0.00000000000000000 0.00000000000000000 -0.00000000000000000 -0.00000000000000044 -1.00000000000000000 
1 -15.94541390132970093 0.00000000000000000 0.00000000000000000 0.00000000000000000 1.00000000000000000 -0.00000000000000044 1.00000000000000000 0.00000000000000000 0.00000000000000000 0.00000000000000000 -0.00000000000000044 -1.00000000000000000 
1 16.05458609867029907 0.00000000000000000 0.00000000000000000 -1.00000000000000000 0.00000000000000000 0.00000000000000000 0.00000000000000000 1.00000000000000000 -0.00000000000000044 -0.00000000000000000 -0.00000000000000044 -1.00000000000000000 
1 16.05458609867029907 35.00000000000000000 -0.00000000000001554 0.00000000000000000 -1.00000000000000000 0.00000000000000044 -1.00000000000000000 0.00000000000000000 0.00000000000000000 -0.00000000000000000 -0.00000000000000044 -1.00000000000000000 
1 -3.09097299999999997 37.50000000000000000 12.03189199999998316 -0.00000000000000000 0.00000000000000022 1.00000000000000000 1.00000000000000000 0.00000000000000000 0.00000000000000000 0.00000000000000000 1.00000000000000000 -0.00000000000000022 
1 -3.09097299999999997 37.50000000000000000 6.03189199999998227 -1.00000000000000000 0.00000000000000000 0.00000000000000000 0.00000000000000000 0.00000000000000022 1.00000000000000000 0.00000000000000000 1.00000000000000000 -0.00000000000000022 
1 2.90902700000000003 37.50000000000000000 6.03189199999998227 -0.00000000000000000 -0.00000000000000022 -1.00000000000000000 -1.00000000000000000 0.00000000000000000 0.00000000000000000 0.00000000000000000 1.00000000000000000 -0.00000000000000022 
1 2.90902700000000003 37.50000000000000000 12.03189199999998316 1.00000000000000000 0.00000000000000000 0.00000000000000000 0.00000000000000000 -0.00000000000000022 -1.00000000000000000 0.00000000000000000 1.00000000000000000 -0.00000000000000022 
1 -15.94541390132970093 35.00000000000000000 -0.00000000000001554 1.00000000000000000 0.00000000000000000 -0.00000000000000000 0.00000000000000000 -1.00000000000000000 0.00000000000000044 0.00000000000000000 -0.00000000000000044 -1.00000000000000000 
Triangulations 0

TShapes 75
Ve
0.000000100000000
-18.445413901329701 -2.500000000000000 0.000000000000000
0 0

0101101
*
Ed
 0.000000100000000 1 1 0
1  1 0 0.000000000000000 18.000000000000000
0

0101000
+75 8 -75 10 *
Ve
0.000000100000000
18.554586098670299 -2.500000000000000 0.000000000000000
0 0

0101101
*
Ed
 0.000000100000000 1 1 0
1  2 0 0.000000000000000 18.000000000000000
0

0101000
+73 8 -73 10 *
Ed
 0.000000100000000 1 1 0
1  3 0 0.000000000000000 37.000000000000000
0

0101000
+75 0 -73 0 *
Wi

0101100
+74 0 -72 0 -71 8 +71 10 *
Fa
0  0.000000100000000 1 0

0111000
+70 0 *
Ve
0.000000100000000
-18.445413901329701 37.500000000000000 0.000000000000000
0 0

0101101
*
Ed
 0.000000100000000 1 1 0
1  4 0 0.000000000000000 18.000000000000000
0

0101000
+68 8 -68 10 *
Ed
 0.000000100000000 1 1 0
1  5 0 0.000000000000000 40.000000000000000
0

0101000
+68 0 -75 0 *
Wi

0101100
+67 0 -74 0 -66 8 +66 10 *
Fa
0  0.000000100000000 2 0

0111000
+65 0 *
Ve
0.000000100000000
18.554586098670299 37.500000000000000 0.000000000000000
0 0

0101101
*
Ed
 0.000000100000000 1 1 0
1  6 0 0.000000000000000 18.000000000000000
0

0101000
+63 8 -63 10 *
Ed
 0.000000100000000 1 1 0
1  7 0 0.000000000000000 40.000000000000000
0

0101000
+73 0 -63 0 *
Wi

0101100
+72 0 -62 0 -61 8 +61 10 *
Fa
0  0.000000100000000 3 0

0111000
+60 0 *
Ed
 0.000000100000000 1 1 0
1  8 0 0.000000000000000 37.000000000000000
0

0101000
+63 0 -68 0 *
Wi

0101100
+71 0 +61 0 +58 0 +66 0 *
Ve
0.000000100000000
-15.945413901329701 0.000000000000000 0.000000000000000
0 0

0101101
*
Ve
0.000000100000000
16.054586098670299 0.000000000000000 0.000000000000000
0 0

0101101
*
Ed
 0.000000100000000 1 1 0
1  9 0 0.000000000000000 32.000000000000000
0

0101000
+56 0 -55 0 *
Ve
0.000000100000000
16.054586098670299 35.000000000000000 0.000000000000000
0 0

0101101
*
Ed
 0.000000100000000 1 1 0
1  10 0 0.000000000000000 35.000000000000000
0

0101000
+55 0 -53 0 *
Ve
0.000000100000000
-15.945413901329701 35.000000000000000 0.000000000000000
0 0

0101101
*
Ed
 0.000000100000000 1 1 0
1  11 0 0.000000000000000 32.000000000000000
0

0101000
+53 0 -51 0 *
Ed
 0.000000100000000 1 1 0
1  12 0 0.000000000000000 35.000000000000000
0

0101000
+51 0 -56 0 *
Wi

0101100
+54 0 +52 0 +50 0 +49 0 *
Fa
0  0.000000100000000 4 0

0111000
-57 12 +48 12 *
Wi

0101100
+62 4 -58 14 +58 15 -67 4 *
Ve
0.000000100000007
-3.090973000000000 37.500000000000000 6.031891999999982
0 0

0101101
*
Ve
0.000000100000007
-3.090973000000000 37.500000000000000 12.031891999999983
0 0

0101101
*
Ed
 0.000000100000007 1 1 0
1  13 0 0.000000000000000 6.000000000000000
0

0101000
+45 19 -44 19 *
Ve
0.000000100000007
2.909027000000000 37.500000000000000 6.031891999999982
0 0

0101101
*
Ed
 0.000000100000000 1 1 0
1  14 0 0.000000000000000 6.000000000000000
0

0101000
+42 19 -45 19 *
Ve
0.000000100000007
2.909027000000000 37.500000000000000 12.031891999999983
0 0

0101101
*
Ed
 0.000000100000007 1 1 0
1  15 0 0.000000000000000 6.000000000000000
0

0101000
+40 19 -42 19 *
Ed
 0.000000100000007 1 1 0
1  16 0 0.000000000000000 6.000000000000000
0

0101000
+44 19 -40 19 *
Wi

0101100
+43 18 +41 18 +39 18 +38 18 *
Fa
0  0.000000100000000 5 4

0111000
+46 0 +37 0 *
Ed
 0.000000100000000 1 1 0
1  17 0 0.000000000000000 18.000000000000000
0

0101000
+56 8 -56 10 *
Ed
 0.000000100000000 1 1 0
1  18 0 0.000000000000000 18.000000000000000
0

0101000
+55 8 -55 10 *
Wi

0101100
+35 0 -34 0 -54 8 +54 10 *
Fa
0  0.000000100000000 6 0

0111000
+33 0 *
Ed
 0.000000100000000 1 1 0
1  19 0 0.000000000000000 18.000000000000000
0

0101000
+53 8 -53 10 *
Wi

0101100
+34 0 -31 0 -52 8 +52 10 *
Fa
0  0.000000100000000 7 0

0111000
+30 0 *
Ed
 0.000000100000000 1 1 0
1  20 0 0.000000000000000 18.000000000000000
0

0101000
+51 8 -51 10 *
Wi

0101100
+31 4 -50 14 +50 15 -28 4 *
Ve
0.000028792333644
2.909027000000000 35.000000000000007 12.031891999999983
0 0

0101101
*
Ve
0.000028792333637
-3.090973000000000 35.000000000000007 12.031891999999983
0 0

0101101
*
Ed
 0.000028792333636 1 1 0
1  21 0 3.572779549335149 9.572779549335149
2  1 8 4 3.572779549335149 9.572779549335149
2  2 9 0 3.572779549335149 9.572779549335149
0

0101000
+26 0 -25 0 *
Ve
0.000028792333637
-3.090973000000000 35.000000000000000 6.031891999999983
0 0

0101101
*
Ed
 0.000028792333636 1 1 0
1  22 0 -9.015946000000000 -3.015945999999999
2  3 8 4 -9.015946000000000 -3.015945999999999
2  4 10 0 -9.015946000000000 -3.015945999999999
0

0101000
+25 0 -23 0 *
Ve
0.000028792333636
2.909027000000000 35.000000000000000 6.031891999999983
0 0

0101101
*
Ed
 0.000028792333636 1 1 0
1  23 0 -12.572779549335150 -6.572779549335150
2  5 8 4 -12.572779549335150 -6.572779549335150
2  6 11 0 -12.572779549335150 -6.572779549335150
0

0101000
+23 0 -21 0 *
Ed
 0.000028792333636 1 1 0
1  24 0 0.015945999999999 6.015946000000000
2  7 8 4 0.015945999999999 6.015946000000000
2  8 12 0 0.015945999999999 6.015946000000000
0

0101000
+21 0 -26 0 *
Wi

0101100
-24 0 -22 0 -20 0 -19 0 *
Fa
0  0.000000100000000 8 4

0111000
+27 0 +18 0 *
Wi

0101100
+28 0 -35 0 -49 8 +49 10 *
Fa
0  0.000000100000000 13 0

0111000
+16 0 *
Ed
 0.000000100000000 1 1 0
1  25 0 0.000000000000000 2.499999999999993
0

0101000
+44 0 -25 0 *
Ed
 0.000000100000000 1 1 0
1  26 0 0.000000000000000 2.500000000000000
0

0101000
+45 0 -23 0 *
Wi

0101100
-43 18 -14 0 -22 0 +13 0 *
Fa
0  0.000000100000000 10 0

0111000
+12 0 *
Ed
 0.000000100000000 1 1 0
1  27 0 0.000000000000000 2.500000000000000
0

0101000
+42 0 -21 0 *
Wi

0101100
-41 18 -13 0 -20 0 +10 0 *
Fa
0  0.000000100000000 11 0

0111000
+9 0 *
Ed
 0.000000100000000 1 1 0
1  28 0 0.000000000000000 2.499999999999993
0

0101000
+40 0 -26 0 *
Wi

0101100
-39 18 -10 0 -19 0 +7 0 *
Fa
0  0.000000100000000 12 0

0111000
+6 0 *
Wi

0101100
-38 18 -7 0 -24 0 +14 0 *
Fa
0  0.000000100000000 9 0

0111000
+4 0 *
Sh

0101100
-69 4 -64 4 -59 4 +47 11 -47 13 -36 0 +32 4 +29 4 +17 0 +15 4 
-11 0 -8 0 -5 0 -3 0 *
So

1100000
+2 0 *

+1 1 